<?xml version="1.0" encoding="UTF-8"?>
<svg width="400px" height="351px" viewBox="0 0 400 351" version="1.1" xmlns="http://www.w3.org/2000/svg" xmlns:xlink="http://www.w3.org/1999/xlink">
    <!-- Generator: Sketch 48.2 (47327) - http://www.bohemiancoding.com/sketch -->
    <title>Group</title>
    <desc>Created with Sketch.</desc>
    <defs></defs>
    <g id="Page-1" stroke="none" stroke-width="1" fill="none" fill-rule="evenodd">
        <g id="Group">
            <rect id="Rectangle" fill="#FFFFFF" x="0" y="0" width="400" height="350.885478"></rect>
            <g id="erlang-logo" transform="translate(11.334120, 9.917355)" fill-rule="nonzero">
                <g id="g8" fill="#A90533">
                    <path d="M59.0856358,238.424448 C29.8511814,207.446214 12.7463559,164.649664 12.7897041,113.587397 C12.7493115,68.4293572 26.9379813,29.6139546 51.3302398,0.0780337711 L51.2908269,0.0928116606 L0.0216694545,0.0928116606 L0.0216694545,238.429377 L59.0491785,238.429377 L59.0856373,238.424713 L59.0856358,238.424448 Z" id="path10"></path>
                    <path d="M329.09794,238.444147 C341.691594,224.955953 352.975932,209.070787 363.201189,190.903933 L306.454389,162.530525 C286.525041,194.930391 257.380228,224.752996 217.07818,224.952004 C158.42308,224.752996 135.37757,174.597103 135.50466,110.039737 L354.689172,110.039737 C354.981775,102.75132 354.981775,99.3622754 354.689172,95.8540215 C356.119665,57.4464872 345.940708,25.1628776 327.424113,0.0218780863 L327.328496,0.0937967341 L376.678516,0.0937967341 L376.678516,238.430356 L328.990507,238.430356 L329.09794,238.444349 L329.09794,238.444147 Z" id="path12"></path>
                    <path d="M139.052321,54.7116075 C141.478836,25.4830642 164.523356,5.82660281 191.543106,5.76749156 C218.747094,5.82660312 238.402573,25.4830642 239.06855,54.7116075 L139.052321,54.7116075 Z" id="path14"></path>
                </g>
                <g id="g16" transform="translate(0.472255, 267.416833)" fill="#000000">
                    <polygon id="path18" points="30.7611449 11.3568975 30.7611449 1.42719275 0.259739296 1.42719275 0.259739296 60.3019983 30.7611449 60.3019983 30.7611449 50.3703222 11.6090994 50.3703222 11.6090994 34.7659374 30.0508236 34.7659374 30.0508236 24.8352485 11.6090994 24.8352485 11.6090994 11.3568975"></polygon>
                    <path d="M82.5425992,35.4742811 C90.1462766,34.3452689 94.3215007,26.8105509 94.6012949,19.1595843 C94.3215007,6.64278183 86.2074972,1.46364851 74.739914,1.42621015 L59.1345451,1.42621015 L59.1345451,60.3010153 L70.4839051,60.3010153 L70.4839051,36.8929595 L84.6706045,60.3010153 L98.8573053,60.3010153 L82.5425992,35.4742899 L82.5425992,35.4742811 Z M70.4829194,10.6485416 L71.9015891,10.6485416 C78.0934921,10.8810457 82.740623,12.2938047 82.5416151,19.8698963 C82.740623,26.8115273 78.2511235,28.6952068 71.9015891,28.3819171 L70.4829194,28.3819171 L70.4829194,10.6485416 Z" id="path20"></path>
                    <polygon id="path22" points="134.323069 1.42718187 122.974695 1.42718187 122.974695 60.3019875 150.637774 60.3019875 150.637774 50.3703113 134.323069 50.3703113 134.323069 1.42718187 134.323069 1.42718187"></polygon>
                    <path d="M208.803246,48.2423123 L213.768585,60.3010064 L225.827281,60.3010064 L203.837906,0.00753129758 L194.616549,0.00753129758 L171.208497,60.3010064 L183.266197,60.3010064 L188.232532,48.2423123 L208.803246,48.2423123 Z M205.965906,39.0219416 L191.77921,39.0219416 L198.163227,17.032557 L205.965906,39.0219416 Z" id="path24"></path>
                    <polygon id="path26" points="247.108313 60.3019983 259.166029 60.3019983 259.166029 20.5792381 290.377755 61.7196822 298.888794 61.7196822 298.888794 1.42719275 286.831077 1.42719275 286.831077 41.149953 255.619351 0.00753751658 247.108313 0.00753751658"></polygon>
                    <path d="M348.543218,29.0902716 L348.543218,38.3116265 L361.311252,38.3116265 C361.04525,45.7222072 354.980438,52.0008061 347.833895,51.7889918 C336.547583,52.0008061 330.954668,41.0937955 330.809844,31.2182753 C330.954746,21.474772 336.468772,10.095856 347.833895,9.93822601 C353.798223,10.0948709 358.840398,14.1755174 361.311252,19.1595812 L371.241947,14.194236 C366.87461,4.99455274 358.052249,-0.106749846 347.833895,0.00752420793 C330.24533,-0.105816996 318.981686,14.411963 318.751148,31.2182714 C318.981686,47.6058812 329.931068,62.2024186 347.124556,62.4290124 C365.693374,62.2024186 374.279274,47.3704207 374.079286,30.5089374 L374.079286,29.0902678 L348.543218,29.0902678 L348.543218,29.0902716 Z" id="path28"></path>
                </g>
            </g>
        </g>
    </g>
</svg>